# xmcd
#
# Track frame offsets: 
#        150
#        14351
#        29236
#        45706
#        62701
#        75883
#        89488
#        103964
#        119609
#        132545
#        148401
#
# Disc length: 2228 seconds
#
# Revision: 4
# Processed by: cddbd v1.5.2PL0 Copyright (c) Steve Scherf et al.
# Submitted via: ExactAudioCopyFreeDBPlugin 1.0
#
DISCID=a508b20b
DTITLE=Chris Young - A.M.
DYEAR=2013
DGENRE=Country
TTITLE0=Aw Naw
TTITLE1=Hold You to It
TTITLE2=Lonely Eyes
TTITLE3=Goodbye
TTITLE4=A.M.
TTITLE5=Nothin' but the Cooler Left
TTITLE6=Who I Am With You
TTITLE7=Text Me Texas
TTITLE8=We're Gonna Find It Tonight
TTITLE9=Forgiveness
TTITLE10=Lighters In The Air
EXTD=YEAR: 2013
EXTT0=
EXTT1=
EXTT2=
EXTT3=
EXTT4=
EXTT5=
EXTT6=
EXTT7=
EXTT8=
EXTT9=
EXTT10=
PLAYORDER=
